<?xml version="1.0" encoding="UTF-8" standalone="no"?>
<svg width="111px" height="33px" viewBox="0 0 111 33" version="1.1" xmlns="http://www.w3.org/2000/svg" xmlns:xlink="http://www.w3.org/1999/xlink" xmlns:sketch="http://www.bohemiancoding.com/sketch/ns">
    <!-- Generator: Sketch 3.1.1 (8761) - http://www.bohemiancoding.com/sketch -->
    <title>EdNC 2</title>
    <desc>Created with Sketch.</desc>
    <defs></defs>
    <g id="Design" stroke="none" stroke-width="1" fill="none" fill-rule="evenodd" sketch:type="MSPage">
        <g id="Desktop-HD-3" sketch:type="MSArtboardGroup" transform="translate(-20.000000, -59.000000)" fill="#ECF0F1">
            <g id="Header" sketch:type="MSLayerGroup">
                <g id="Logo" transform="translate(8.000000, 8.000000)" sketch:type="MSShapeGroup">
                    <path d="M34.57,83 L34.57,75.902 L31.756,75.902 L31.084,79.556 C31,79.976 30.874,80.018 30.412,80.018 L19.744,80.018 L19.744,69.182 L30.958,69.182 L30.958,66.158 L19.744,66.158 L19.744,55.574 L29.488,55.574 C29.95,55.574 30.118,55.7 30.202,56.12 L30.79,59.354 L33.646,59.522 L33.646,52.592 L12.562,52.592 L12.562,54.902 L15.208,55.196 C15.796,55.238 15.88,55.406 15.88,56.036 L15.88,79.598 C15.88,80.228 15.796,80.354 15.208,80.438 L12.562,80.732 L12.562,83 L34.57,83 Z M60.106,83 L60.106,80.732 L57.964,80.438 C57.334,80.354 57.292,80.27 57.292,79.598 L57.292,51.29 L50.866,51.29 L50.488,53.516 L53.008,54.314 C53.386,54.44 53.554,54.734 53.554,55.154 L53.554,63.008 C51.916,61.832 49.648,60.992 47.128,60.992 C42.088,60.992 38.35,64.394 38.35,72.668 C38.35,80.396 41.5,83.504 46.288,83.504 C49.564,83.504 51.748,82.034 53.68,80.186 L53.848,80.228 L54.184,83 L60.106,83 Z M53.47,76.826 C51.622,78.674 49.606,80.312 47.128,80.312 C44.188,80.312 42.214,78.422 42.214,72.584 C42.214,67.586 43.768,64.142 47.716,64.142 C49.942,64.142 52.21,65.36 53.47,66.41 L53.47,76.826 Z M90.388,83 L90.388,55.994 C90.388,55.364 90.43,55.28 91.06,55.196 L93.874,54.86 L93.874,52.592 L83.71,52.592 L83.71,54.86 L86.356,55.154 C86.944,55.196 87.028,55.364 87.028,55.994 L87.028,77.792 L72.076,52.55 L63.844,52.55 L63.844,54.86 L66.49,55.154 C67.078,55.196 67.162,55.364 67.162,55.994 L67.162,79.598 C67.162,80.228 67.078,80.354 66.49,80.438 L63.844,80.732 L63.844,83 L74.05,83 L74.05,80.732 L71.236,80.396 C70.606,80.312 70.564,80.228 70.564,79.556 L70.564,57.59 L85.894,83 L90.388,83 Z M122.266,74.936 L119.578,74.936 L118.906,78.716 C118.822,79.22 118.654,79.346 118.318,79.472 C116.722,80.144 114.328,80.354 112.438,80.354 C105.886,80.354 101.854,75.986 101.854,67.796 C101.854,59.564 106.138,55.196 112.732,55.196 C114.706,55.196 116.596,55.616 118.066,56.12 C118.486,56.246 118.57,56.498 118.612,56.876 L119.326,60.866 L122.182,61.034 L122.182,54.314 C120.082,52.928 116.596,52.046 112.9,52.046 C102.82,52.046 97.822,58.682 97.822,67.796 C97.822,77.036 101.938,83.504 112.186,83.504 C116.05,83.504 119.998,82.79 122.266,81.278 L122.266,74.936 Z" id="EdNC-2"></path>
                </g>
            </g>
        </g>
    </g>
</svg>