<?xml version="1.0" encoding="UTF-8" standalone="no"?>
<svg width="405px" height="179px" viewBox="0 0 405 179" version="1.1" xmlns="http://www.w3.org/2000/svg" xmlns:xlink="http://www.w3.org/1999/xlink" xmlns:sketch="http://www.bohemiancoding.com/sketch/ns">
    <!-- Generator: Sketch 3.2.2 (9983) - http://www.bohemiancoding.com/sketch -->
    <title>100 days + of EdNC 2</title>
    <desc>Created with Sketch.</desc>
    <defs>
        <filter x="-50%" y="-50%" width="200%" height="200%" filterUnits="objectBoundingBox" id="filter-1">
            <feOffset dx="0" dy="0" in="SourceAlpha" result="shadowOffsetOuter1"></feOffset>
            <feGaussianBlur stdDeviation="33.5" in="shadowOffsetOuter1" result="shadowBlurOuter1"></feGaussianBlur>
            <feColorMatrix values="0 0 0 0 0   0 0 0 0 0   0 0 0 0 0  0 0 0 0.573644135 0" in="shadowBlurOuter1" type="matrix" result="shadowMatrixOuter1"></feColorMatrix>
            <feOffset dx="0" dy="2" in="SourceAlpha" result="shadowOffsetOuter2"></feOffset>
            <feGaussianBlur stdDeviation="12.5" in="shadowOffsetOuter2" result="shadowBlurOuter2"></feGaussianBlur>
            <feColorMatrix values="0 0 0 0 0   0 0 0 0 0   0 0 0 0 0  0 0 0 0.7 0" in="shadowBlurOuter2" type="matrix" result="shadowMatrixOuter2"></feColorMatrix>
            <feOffset dx="0" dy="2" in="SourceAlpha" result="shadowOffsetOuter3"></feOffset>
            <feGaussianBlur stdDeviation="2" in="shadowOffsetOuter3" result="shadowBlurOuter3"></feGaussianBlur>
            <feColorMatrix values="0 0 0 0 0   0 0 0 0 0   0 0 0 0 0  0 0 0 0.608358809 0" in="shadowBlurOuter3" type="matrix" result="shadowMatrixOuter3"></feColorMatrix>
            <feMerge>
                <feMergeNode in="shadowMatrixOuter1"></feMergeNode>
                <feMergeNode in="shadowMatrixOuter2"></feMergeNode>
                <feMergeNode in="shadowMatrixOuter3"></feMergeNode>
                <feMergeNode in="SourceGraphic"></feMergeNode>
            </feMerge>
        </filter>
        <filter x="-50%" y="-50%" width="200%" height="200%" filterUnits="objectBoundingBox" id="filter-2">
            <feOffset dx="0" dy="0" in="SourceAlpha" result="shadowOffsetOuter1"></feOffset>
            <feGaussianBlur stdDeviation="33.5" in="shadowOffsetOuter1" result="shadowBlurOuter1"></feGaussianBlur>
            <feColorMatrix values="0 0 0 0 0   0 0 0 0 0   0 0 0 0 0  0 0 0 0.573644135 0" in="shadowBlurOuter1" type="matrix" result="shadowMatrixOuter1"></feColorMatrix>
            <feOffset dx="0" dy="2" in="SourceAlpha" result="shadowOffsetOuter2"></feOffset>
            <feGaussianBlur stdDeviation="12.5" in="shadowOffsetOuter2" result="shadowBlurOuter2"></feGaussianBlur>
            <feColorMatrix values="0 0 0 0 0   0 0 0 0 0   0 0 0 0 0  0 0 0 0.7 0" in="shadowBlurOuter2" type="matrix" result="shadowMatrixOuter2"></feColorMatrix>
            <feOffset dx="0" dy="2" in="SourceAlpha" result="shadowOffsetOuter3"></feOffset>
            <feGaussianBlur stdDeviation="2" in="shadowOffsetOuter3" result="shadowBlurOuter3"></feGaussianBlur>
            <feColorMatrix values="0 0 0 0 0   0 0 0 0 0   0 0 0 0 0  0 0 0 0.608358809 0" in="shadowBlurOuter3" type="matrix" result="shadowMatrixOuter3"></feColorMatrix>
            <feMerge>
                <feMergeNode in="shadowMatrixOuter1"></feMergeNode>
                <feMergeNode in="shadowMatrixOuter2"></feMergeNode>
                <feMergeNode in="shadowMatrixOuter3"></feMergeNode>
                <feMergeNode in="SourceGraphic"></feMergeNode>
            </feMerge>
        </filter>
    </defs>
    <g id="Home" stroke="none" stroke-width="1" fill="none" fill-rule="evenodd" sketch:type="MSPage">
        <g id="Desktop-HD-5" sketch:type="MSArtboardGroup" transform="translate(-277.000000, 0.000000)" fill="#FFFFFF">
            <g id="Group-+-100-days-of-EdNC" sketch:type="MSLayerGroup" transform="translate(0.000000, -13.000000)">
                <g id="100-days-+-of-EdNC-2" transform="translate(332.000000, 28.000000)" sketch:type="MSShapeGroup">
                    <path d="M24.339,59 L24.339,54.842 L17.563,54.303 C16.408,54.149 16.331,53.995 16.331,52.763 L16.331,15.187 L1.47,15.187 L0.931,19.499 L8.246,20.885 C9.016,21.116 9.324,21.347 9.324,22.502 L9.324,52.763 C9.324,53.918 9.17,54.226 8.092,54.303 L0.315,54.765 L0.315,59 L24.339,59 Z M47.978,59.924 C63.07,59.924 66.997,48.836 66.997,36.131 C66.997,24.119 63.455,14.032 48.748,14.032 C33.887,14.032 29.421,24.735 29.421,37.132 C29.421,49.683 32.809,59.924 47.978,59.924 L47.978,59.924 Z M48.209,54.226 C39.277,54.226 36.736,47.527 36.736,37.517 C36.736,26.198 39.739,19.961 48.594,19.961 C57.372,19.961 59.682,26.121 59.682,36.67 C59.682,47.45 56.987,54.226 48.209,54.226 L48.209,54.226 Z M92.176,59.924 C107.268,59.924 111.195,48.836 111.195,36.131 C111.195,24.119 107.653,14.032 92.946,14.032 C78.085,14.032 73.619,24.735 73.619,37.132 C73.619,49.683 77.007,59.924 92.176,59.924 L92.176,59.924 Z M92.407,54.226 C83.475,54.226 80.934,47.527 80.934,37.517 C80.934,26.198 83.937,19.961 92.792,19.961 C101.57,19.961 103.88,26.121 103.88,36.67 C103.88,47.45 101.185,54.226 92.407,54.226 L92.407,54.226 Z M175.182,59 L175.182,54.842 L171.255,54.303 C170.1,54.149 170.023,53.995 170.023,52.763 L170.023,0.865 L158.242,0.865 L157.549,4.946 L162.169,6.409 C162.862,6.64 163.17,7.179 163.17,7.949 L163.17,22.348 C160.167,20.192 156.009,18.652 151.389,18.652 C142.149,18.652 135.296,24.889 135.296,40.058 C135.296,54.226 141.071,59.924 149.849,59.924 C155.855,59.924 159.859,57.229 163.401,53.841 L163.709,53.918 L164.325,59 L175.182,59 Z M163.016,47.681 C159.628,51.069 155.932,54.072 151.389,54.072 C145.999,54.072 142.38,50.607 142.38,39.904 C142.38,30.741 145.229,24.427 152.467,24.427 C156.548,24.427 160.706,26.66 163.016,28.585 L163.016,47.681 Z M217.378,59 L217.378,54.842 L213.451,54.303 C212.296,54.149 212.219,53.995 212.219,52.763 L212.219,32.358 C212.219,21.732 208.523,18.652 197.589,18.652 C191.506,18.652 182.728,19.73 182.728,29.201 L189.35,29.894 C189.427,24.119 192.815,23.965 197.512,23.965 C204.211,23.965 205.289,26.737 205.289,32.358 L205.289,36.439 L194.894,37.286 C185.654,38.056 180.88,41.675 180.88,49.375 C180.88,53.302 182.112,59.924 191.737,59.924 C197.666,59.924 201.978,57.383 205.674,53.918 L205.905,53.995 L206.598,59 L217.378,59 Z M205.289,48.528 C202.902,50.761 198.051,54.457 193.508,54.457 C189.889,54.457 188.118,52.763 188.118,48.605 C188.118,44.601 189.966,42.676 196.588,42.06 L205.289,41.29 L205.289,48.528 Z M244.713,75.324 L244.713,71.166 L237.244,70.396 L255.955,25.351 C256.34,24.504 256.956,24.196 257.88,24.042 L260.498,23.657 L260.498,19.422 L245.252,19.422 L244.405,23.657 L249.641,24.273 L238.938,50.145 L228.697,24.273 L233.779,23.657 L233.779,19.422 L217.84,19.422 L216.916,23.657 L220.073,24.427 C220.997,24.658 221.305,24.812 221.69,25.736 L235.55,58.538 L231.084,68.779 C230.622,69.857 230.314,70.319 229.39,70.396 L223.846,71.089 L223.846,75.324 L244.713,75.324 Z M292.145,30.741 L292.145,20.808 C290.528,20.115 285.523,18.652 279.979,18.652 C272.048,18.652 264.656,21.886 264.656,30.664 C264.656,39.134 271.432,40.674 277.438,42.06 C282.366,43.215 286.755,44.293 286.755,48.913 C286.755,53.071 283.444,54.996 278.285,54.996 C274.435,54.996 271.74,54.149 270.739,53.764 C270.046,53.533 269.892,53.225 269.815,52.686 L268.891,47.373 L263.732,47.065 L263.732,57.306 C265.118,58.153 271.432,59.924 277.669,59.924 C285.831,59.924 293.3,56.844 293.3,47.912 C293.3,39.596 286.755,37.748 280.749,36.208 C275.744,34.899 271.124,33.975 271.124,29.586 C271.124,26.275 273.665,23.811 279.286,23.811 C281.904,23.811 284.214,24.273 285.292,24.658 C285.908,24.812 285.985,25.12 286.062,25.659 L286.986,30.433 L292.145,30.741 Z" id="100-days" filter="url(#filter-1)"></path>
                    <path d="M73.142,104.695 C79.298,104.695 82.034,100.771 82.034,94.723 C82.034,89.323 79.658,85.399 73.502,85.399 C67.346,85.399 64.466,89.287 64.466,94.939 C64.466,100.663 66.878,104.695 73.142,104.695 L73.142,104.695 Z M73.25,102.067 C69.686,102.067 67.85,99.763 67.85,94.975 C67.85,90.223 69.902,88.135 73.43,88.135 C76.922,88.135 78.65,90.223 78.65,94.939 C78.65,99.871 76.742,102.067 73.25,102.067 L73.25,102.067 Z M95.858,104.263 L95.858,102.319 L91.646,101.995 C91.106,101.959 91.07,101.851 91.07,101.275 L91.07,88.243 L97.262,88.243 L97.262,85.759 L91.358,85.759 C91.07,85.759 91.07,85.651 91.07,85.399 L91.07,82.915 C91.07,80.575 91.574,79.135 94.238,79.135 C95.894,79.135 96.722,79.495 96.722,81.403 L99.782,80.971 C99.782,77.407 97.334,76.687 94.382,76.687 C89.918,76.687 87.794,78.811 87.794,83.023 L87.794,85.759 L84.914,85.759 L84.914,88.243 L87.506,88.243 C87.794,88.243 87.794,88.387 87.794,88.603 L87.794,101.347 C87.794,101.887 87.722,102.031 87.218,102.067 L84.914,102.283 L84.914,104.263 L95.858,104.263 Z M127.142,104.263 L127.142,98.179 L124.73,98.179 L124.154,101.311 C124.082,101.671 123.974,101.707 123.578,101.707 L114.434,101.707 L114.434,92.419 L124.046,92.419 L124.046,89.827 L114.434,89.827 L114.434,80.755 L122.786,80.755 C123.182,80.755 123.326,80.863 123.398,81.223 L123.902,83.995 L126.35,84.139 L126.35,78.199 L108.278,78.199 L108.278,80.179 L110.546,80.431 C111.05,80.467 111.122,80.611 111.122,81.151 L111.122,101.347 C111.122,101.887 111.05,101.995 110.546,102.067 L108.278,102.319 L108.278,104.263 L127.142,104.263 Z M149.318,104.263 L149.318,102.319 L147.482,102.067 C146.942,101.995 146.906,101.923 146.906,101.347 L146.906,77.083 L141.398,77.083 L141.074,78.991 L143.234,79.675 C143.558,79.783 143.702,80.035 143.702,80.395 L143.702,87.127 C142.298,86.119 140.354,85.399 138.194,85.399 C133.874,85.399 130.67,88.315 130.67,95.407 C130.67,102.031 133.37,104.695 137.474,104.695 C140.282,104.695 142.154,103.435 143.81,101.851 L143.954,101.887 L144.242,104.263 L149.318,104.263 Z M143.63,98.971 C142.046,100.555 140.318,101.959 138.194,101.959 C135.674,101.959 133.982,100.339 133.982,95.335 C133.982,91.051 135.314,88.099 138.698,88.099 C140.606,88.099 142.55,89.143 143.63,90.043 L143.63,98.971 Z M175.274,104.263 L175.274,81.115 C175.274,80.575 175.31,80.503 175.85,80.431 L178.262,80.143 L178.262,78.199 L169.55,78.199 L169.55,80.143 L171.818,80.395 C172.322,80.431 172.394,80.575 172.394,81.115 L172.394,99.799 L159.578,78.163 L152.522,78.163 L152.522,80.143 L154.79,80.395 C155.294,80.431 155.366,80.575 155.366,81.115 L155.366,101.347 C155.366,101.887 155.294,101.995 154.79,102.067 L152.522,102.319 L152.522,104.263 L161.27,104.263 L161.27,102.319 L158.858,102.031 C158.318,101.959 158.282,101.887 158.282,101.311 L158.282,82.483 L171.422,104.263 L175.274,104.263 Z M202.814,97.351 L200.51,97.351 L199.934,100.591 C199.862,101.023 199.718,101.131 199.43,101.239 C198.062,101.815 196.01,101.995 194.39,101.995 C188.774,101.995 185.318,98.251 185.318,91.231 C185.318,84.175 188.99,80.431 194.642,80.431 C196.334,80.431 197.954,80.791 199.214,81.223 C199.574,81.331 199.646,81.547 199.682,81.871 L200.294,85.291 L202.742,85.435 L202.742,79.675 C200.942,78.487 197.954,77.731 194.786,77.731 C186.146,77.731 181.862,83.419 181.862,91.231 C181.862,99.151 185.39,104.695 194.174,104.695 C197.486,104.695 200.87,104.083 202.814,102.787 L202.814,97.351 Z" id="of-EdNC" filter="url(#filter-2)"></path>
                </g>
            </g>
        </g>
    </g>
</svg>