<?xml version="1.0" encoding="UTF-8" standalone="no"?>
<svg width="246px" height="33px" viewBox="0 0 246 33" version="1.1" xmlns="http://www.w3.org/2000/svg" xmlns:xlink="http://www.w3.org/1999/xlink" xmlns:sketch="http://www.bohemiancoding.com/sketch/ns">
    <!-- Generator: Sketch 3.1 (8751) - http://www.bohemiancoding.com/sketch -->
    <title>EducationNC 2</title>
    <desc>Created with Sketch.</desc>
    <defs></defs>
    <g id="Purple/Blue/Green---Silver" stroke="none" stroke-width="1" fill="none" fill-rule="evenodd" sketch:type="MSPage">
        <g class="text" id="Purple-Blue-Green-Silver" sketch:type="MSArtboardGroup" transform="translate(-60.000000, -68.000000)" fill="#ECF0F1">
            <g id="Logo" sketch:type="MSLayerGroup" transform="translate(41.000000, 38.000000)">
                <path d="M41.57,62 L41.57,54.902 L38.756,54.902 L38.084,58.556 C38,58.976 37.874,59.018 37.412,59.018 L26.744,59.018 L26.744,48.182 L37.958,48.182 L37.958,45.158 L26.744,45.158 L26.744,34.574 L36.488,34.574 C36.95,34.574 37.118,34.7 37.202,35.12 L37.79,38.354 L40.646,38.522 L40.646,31.592 L19.562,31.592 L19.562,33.902 L22.208,34.196 C22.796,34.238 22.88,34.406 22.88,35.036 L22.88,58.598 C22.88,59.228 22.796,59.354 22.208,59.438 L19.562,59.732 L19.562,62 L41.57,62 Z M65.806,62 L65.806,59.732 L63.664,59.438 C63.034,59.354 62.992,59.27 62.992,58.598 L62.992,30.29 L56.566,30.29 L56.188,32.516 L58.708,33.314 C59.086,33.44 59.254,33.734 59.254,34.154 L59.254,42.008 C57.616,40.832 55.348,39.992 52.828,39.992 C47.788,39.992 44.05,43.394 44.05,51.668 C44.05,59.396 47.2,62.504 51.988,62.504 C55.264,62.504 57.448,61.034 59.38,59.186 L59.548,59.228 L59.884,62 L65.806,62 Z M59.17,55.826 C57.322,57.674 55.306,59.312 52.828,59.312 C49.888,59.312 47.914,57.422 47.914,51.584 C47.914,46.586 49.468,43.142 53.416,43.142 C55.642,43.142 57.91,44.36 59.17,45.41 L59.17,55.826 Z M90.5880001,62 L90.5880001,59.732 L88.3620001,59.438 C87.9000001,59.396 87.7740001,59.186 87.7740001,58.556 L87.7740001,40.412 L81.5160001,40.412 L81.1800001,42.68 L83.2800001,43.226 C83.9100001,43.352 83.9520001,43.478 83.9520001,44.15 L83.9520001,55.742 C82.4820001,57.422 80.0460001,59.396 77.1900001,59.396 C74.5440001,59.396 73.9140001,57.632 73.9140001,53.978 L73.9140001,40.412 L67.5720001,40.412 L67.2360001,42.68 L69.4200001,43.226 C70.0500001,43.352 70.0920001,43.52 70.0920001,44.192 L70.0920001,54.86 C70.0920001,59.69 71.5200001,62.504 76.1400001,62.504 C79.8360001,62.504 82.3140001,60.74 84.2460001,59.102 L84.3300001,59.144 L84.6660001,62 L90.5880001,62 Z M108.566,57.968 C107.39,58.682 105.29,59.354 103.19,59.354 C99.1160001,59.354 96.3440001,57.086 96.3440001,51.206 C96.3440001,45.2 99.3260001,43.016 103.064,43.016 C104.24,43.016 105.332,43.184 105.92,43.394 C106.298,43.52 106.382,43.688 106.424,43.982 L106.928,46.754 L109.742,46.88 L109.742,41.294 C108.818,40.832 106.424,39.992 103.358,39.992 C96.9740001,39.992 92.3540001,43.478 92.3540001,51.458 C92.3540001,58.094 95.4200001,62.504 102.602,62.504 C105.374,62.504 108.188,61.79 109.784,60.74 L108.566,57.968 Z M131.206,62 L131.206,59.732 L129.064,59.438 C128.434,59.354 128.392,59.27 128.392,58.598 L128.392,47.468 C128.392,41.672 126.376,39.992 120.412,39.992 C117.094,39.992 112.306,40.58 112.306,45.746 L115.918,46.124 C115.96,42.974 117.808,42.89 120.37,42.89 C124.024,42.89 124.612,44.402 124.612,47.468 L124.612,49.694 L118.942,50.156 C113.902,50.576 111.298,52.55 111.298,56.75 C111.298,58.892 111.97,62.504 117.22,62.504 C120.454,62.504 122.806,61.118 124.822,59.228 L124.948,59.27 L125.326,62 L131.206,62 Z M124.612,56.288 C123.31,57.506 120.664,59.522 118.186,59.522 C116.212,59.522 115.246,58.598 115.246,56.33 C115.246,54.146 116.254,53.096 119.866,52.76 L124.612,52.34 L124.612,56.288 Z M145.572,58.514 C144.438,58.976 142.968,59.354 141.666,59.354 C139.272,59.354 138.642,58.346 138.642,55.7 L138.642,43.31 L145.152,43.31 L145.152,40.412 L138.978,40.412 C138.642,40.412 138.642,40.244 138.642,39.992 L138.642,34.868 L136.164,34.868 C135.618,39.152 134.694,40.454 131.418,40.874 L131.418,43.31 L134.484,43.31 C134.82,43.31 134.82,43.478 134.82,43.73 L134.82,56.834 C134.82,60.614 136.626,62.504 140.658,62.504 C142.8,62.504 144.816,61.874 146.496,61.202 L145.572,58.514 Z M154.94,33.062 C154.94,31.382 153.974,30.416 152.252,30.416 C150.53,30.416 149.522,31.382 149.522,33.062 C149.522,34.784 150.53,35.75 152.252,35.75 C153.974,35.75 154.94,34.784 154.94,33.062 L154.94,33.062 Z M158.09,62 L158.09,59.732 L155.402,59.438 C154.772,59.354 154.73,59.27 154.73,58.598 L154.73,40.412 L148.346,40.412 L147.968,42.638 L150.362,43.436 C150.782,43.562 150.908,43.856 150.908,44.318 L150.908,58.598 C150.908,59.228 150.824,59.396 150.236,59.438 L147.464,59.69 L147.464,62 L158.09,62 Z M168.928,62.504 C176.11,62.504 179.302,57.926 179.302,50.87 C179.302,44.57 176.53,39.992 169.348,39.992 C162.166,39.992 158.806,44.528 158.806,51.122 C158.806,57.8 161.62,62.504 168.928,62.504 L168.928,62.504 Z M169.054,59.438 C164.896,59.438 162.754,56.75 162.754,51.164 C162.754,45.62 165.148,43.184 169.264,43.184 C173.338,43.184 175.354,45.62 175.354,51.122 C175.354,56.876 173.128,59.438 169.054,59.438 L169.054,59.438 Z M205.092,62 L205.092,59.732 L202.698,59.438 C202.068,59.354 202.026,59.27 202.026,58.598 L202.026,47.678 C202.026,43.1 200.22,39.992 195.39,39.992 C192.366,39.992 189.804,41.378 187.62,42.932 L187.494,42.89 L187.158,40.412 L181.656,40.412 L181.278,42.638 L183.672,43.436 C184.092,43.562 184.218,43.856 184.218,44.318 L184.218,58.598 C184.218,59.228 184.134,59.354 183.546,59.438 L181.446,59.69 L181.446,62 L191.064,62 L191.064,59.732 L188.712,59.438 C188.082,59.354 188.04,59.27 188.04,58.598 L188.04,45.956 C189.888,44.444 192.156,43.268 194.55,43.268 C197.658,43.268 198.204,45.914 198.204,48.644 L198.204,58.598 C198.204,59.186 197.994,59.396 197.448,59.438 L195.432,59.69 L195.432,62 L205.092,62 Z M233.948,62 L233.948,34.994 C233.948,34.364 233.99,34.28 234.62,34.196 L237.434,33.86 L237.434,31.592 L227.27,31.592 L227.27,33.86 L229.916,34.154 C230.504,34.196 230.588,34.364 230.588,34.994 L230.588,56.792 L215.636,31.55 L207.404,31.55 L207.404,33.86 L210.05,34.154 C210.638,34.196 210.722,34.364 210.722,34.994 L210.722,58.598 C210.722,59.228 210.638,59.354 210.05,59.438 L207.404,59.732 L207.404,62 L217.61,62 L217.61,59.732 L214.796,59.396 C214.166,59.312 214.124,59.228 214.124,58.556 L214.124,36.59 L229.454,62 L233.948,62 Z M264.778,53.936 L262.09,53.936 L261.418,57.716 C261.334,58.22 261.166,58.346 260.83,58.472 C259.234,59.144 256.84,59.354 254.95,59.354 C248.398,59.354 244.366,54.986 244.366,46.796 C244.366,38.564 248.65,34.196 255.244,34.196 C257.218,34.196 259.108,34.616 260.578,35.12 C260.998,35.246 261.082,35.498 261.124,35.876 L261.838,39.866 L264.694,40.034 L264.694,33.314 C262.594,31.928 259.108,31.046 255.412,31.046 C245.332,31.046 240.334,37.682 240.334,46.796 C240.334,56.036 244.45,62.504 254.698,62.504 C258.562,62.504 262.51,61.79 264.778,60.278 L264.778,53.936 Z" id="EducationNC-2" sketch:type="MSShapeGroup"></path>
            </g>
        </g>
    </g>
</svg>
